<?xml version="1.0" encoding="UTF-8"?>
<svg version="1.1" xmlns="http://www.w3.org/2000/svg" width="100" height="100">
<path d="M0 0 C19.14 0 38.28 0 58 0 C58 15.84 58 31.68 58 48 C56.68 48 55.36 48 54 48 C54.04640625 49.15757813 54.0928125 50.31515625 54.140625 51.5078125 C54.17816248 53.04684906 54.21456051 54.5859137 54.25 56.125 C54.28351563 56.88554688 54.31703125 57.64609375 54.3515625 58.4296875 C54.44412851 63.79851595 53.54244882 66.72973897 50 71 C45.82570488 74.67735522 43.52119537 76.12013314 38.00292969 76.16113281 C36.96134705 76.17074036 35.9197644 76.1803479 34.84661865 76.19024658 C33.15137054 76.1966214 33.15137054 76.1966214 31.421875 76.203125 C30.26254456 76.20882507 29.10321411 76.21452515 27.90875244 76.22039795 C25.4507336 76.2298587 22.99270201 76.23638618 20.53466797 76.24023438 C16.77939582 76.24992415 13.02467448 76.28093174 9.26953125 76.3125 C6.88281575 76.31903148 4.49609634 76.32428138 2.109375 76.328125 C0.98730652 76.3404718 -0.13476196 76.3528186 -1.29083252 76.36553955 C-7.92148641 76.34666324 -12.77828331 75.97181414 -17.86328125 71.28125 C-18.34152344 70.6934375 -18.81976563 70.105625 -19.3125 69.5 C-19.80363281 68.9121875 -20.29476563 68.324375 -20.80078125 67.71875 C-23.77667124 63.45363079 -23.07207595 58.97324088 -23 54 C-17.39 54 -11.78 54 -6 54 C-6 37.5 -6 21 -6 4 C-4.02 4 -2.04 4 0 4 C0 2.68 0 1.36 0 0 Z " fill="#4B4DFE" transform="translate(29,9)"/>
<path d="M0 0 C1.98 0 3.96 0 6 0 C6 16.5 6 33 6 50 C13.26 50 20.52 50 28 50 C28.66 52.97 29.32 55.94 30 59 C33.69959833 63.45494458 33.69959833 63.45494458 38.98828125 65.203125 C43.80729265 65.30031515 47.1573109 65.26046348 51 62 C53.35020019 58.4283696 53.3917562 54.94838832 53.625 50.75 C53.69976562 49.48671875 53.77453125 48.2234375 53.8515625 46.921875 C53.92503906 45.47554687 53.92503906 45.47554687 54 44 C55.98 44 57.96 44 60 44 C60.10861833 46.70942393 60.18758577 49.414439 60.25 52.125 C60.28351563 52.88554688 60.31703125 53.64609375 60.3515625 54.4296875 C60.44412851 59.79851595 59.54244882 62.72973897 56 67 C51.82570488 70.67735522 49.52119537 72.12013314 44.00292969 72.16113281 C42.96134705 72.17074036 41.9197644 72.1803479 40.84661865 72.19024658 C39.15137054 72.1966214 39.15137054 72.1966214 37.421875 72.203125 C36.26254456 72.20882507 35.10321411 72.21452515 33.90875244 72.22039795 C31.4507336 72.2298587 28.99270201 72.23638618 26.53466797 72.24023438 C22.77939582 72.24992415 19.02467448 72.28093174 15.26953125 72.3125 C12.88281575 72.31903148 10.49609634 72.32428138 8.109375 72.328125 C6.98730652 72.3404718 5.86523804 72.3528186 4.70916748 72.36553955 C-1.92148641 72.34666324 -6.77828331 71.97181414 -11.86328125 67.28125 C-12.34152344 66.6934375 -12.81976563 66.105625 -13.3125 65.5 C-13.80363281 64.9121875 -14.29476563 64.324375 -14.80078125 63.71875 C-17.77667124 59.45363079 -17.07207595 54.97324088 -17 50 C-11.39 50 -5.78 50 0 50 C0 33.5 0 17 0 0 Z " fill="#4343BE" transform="translate(23,13)"/>
<path d="M0 0 C19.14 0 38.28 0 58 0 C58 15.84 58 31.68 58 48 C54.7 48 51.4 48 48 48 C48 35.46 48 22.92 48 10 C32.16 10 16.32 10 0 10 C0 6.7 0 3.4 0 0 Z " fill="#3ABCF8" transform="translate(29,9)"/>
<path d="M0 0 C9.57142857 0.85714286 9.57142857 0.85714286 14 3 C14 4.32 14 5.64 14 7 C10.7 6.34 7.4 5.68 4 5 C4.05800781 6.38574219 4.11601563 7.77148438 4.17578125 9.19921875 C4.22268877 11.0286121 4.26818787 12.85804194 4.3125 14.6875 C4.35439453 15.59951172 4.39628906 16.51152344 4.43945312 17.45117188 C4.52421637 22.11315038 4.54399409 24.27558575 1.66796875 28.10546875 C-1 30 -1 30 -4 30.625 C-8.0743356 29.77618008 -9.54405875 28.32274404 -12 25 C-12.625 22 -12.625 22 -12 19 C-9.9375 16.0625 -9.9375 16.0625 -7 14 C-4.69 14.33 -2.38 14.66 0 15 C0 10.05 0 5.1 0 0 Z " fill="#E6F0F5" transform="translate(52,27)"/>
<path d="M0 0 C10.56 0 21.12 0 32 0 C34.475 4.95 34.475 4.95 37 10 C32.9799737 10.09941096 28.96043037 10.17172063 24.93945312 10.21972656 C23.57376632 10.23975319 22.20816431 10.26698332 20.84277344 10.30175781 C18.87212898 10.35066432 16.90084017 10.37091347 14.9296875 10.390625 C13.74616699 10.41157227 12.56264648 10.43251953 11.34326172 10.45410156 C7.28142584 9.90239901 5.17312475 8.549781 2 6 C0 3 0 3 0 0 Z " fill="#FC8307" transform="translate(13,69)"/>
</svg>
