<svg xmlns="http://www.w3.org/2000/svg" width="100" height="100">
  <path d="M29 9h58v48h-4l.14 3.508q.057 2.309.11 4.617l.102 2.305c.092 5.369-.81 8.3-4.352 12.57-4.174 3.677-6.479 5.12-11.997 5.161l-3.156.03-3.425.012-3.513.017q-3.687.015-7.374.02c-3.756.01-7.51.04-11.265.073l-7.16.015-3.4.038c-6.631-.02-11.488-.394-16.573-5.085L9.687 78.5 8.2 76.719C5.223 72.454 5.928 67.973 6 63h17V13h6z" fill="#4B4DFE"/>
  <path d="M23 13h6v50h22l2 9c3.7 4.455 3.7 4.455 8.988 6.203 4.82.097 8.17.057 12.012-3.203 2.35-3.572 2.392-7.052 2.625-11.25l.227-3.828L77 57h6c.109 2.71.188 5.414.25 8.125l.102 2.305c.092 5.369-.81 8.3-4.352 12.57-4.174 3.677-6.479 5.12-11.997 5.161l-3.156.03-3.425.012-3.513.017q-3.687.015-7.374.02c-3.756.01-7.51.04-11.265.073l-7.16.015-3.4.038c-6.631-.02-11.488-.394-16.573-5.085L9.687 78.5 8.2 76.719C5.223 72.454 5.928 67.973 6 63h17z" fill="#4343BE"/>
  <path d="M29 9h58v48H77V19H29z" fill="#4343BE"/>
  <path d="M52 27c9.571.857 9.571.857 14 3v4l-10-2 .176 4.2q.07 2.743.136 5.487l.127 2.764c.085 4.662.105 6.825-2.771 10.654C51 57 51 57 48 57.625c-4.074-.849-5.544-2.302-8-5.625-.625-3-.625-3 0-6 2.063-2.937 2.063-2.937 5-5l7 1z" fill="#E6F0F5"/>
  <path d="M13 69h32l5 10q-6.03.149-12.06.22-2.05.03-4.097.082c-1.97.049-3.942.069-5.913.089l-3.587.063C20.281 78.902 18.173 77.55 15 75c-2-3-2-3-2-6" fill="#3ABCF8"/>
</svg>